<svg id="Layer_1" data-name="Layer 1" xmlns="http://www.w3.org/2000/svg" viewBox="0 0 729.69 735"><title>storeArtboard 1 copyblack</title><path d="M405,393.38a2.17,2.17,0,0,0-2.16-2.17h-1A2.17,2.17,0,0,1,399.7,389l.08-32.61a2.17,2.17,0,0,0-2.16-2.16l-59-.14a2.17,2.17,0,0,0-2.16,2.16l-.07,32.61a2.17,2.17,0,0,1-2.16,2.15h-1a2.17,2.17,0,0,0-2.16,2.16L331,421.66a9.67,9.67,0,0,0,.16,1.59H331v.56a9.43,9.43,0,0,0,9.42,9.47l13.18,0h.22a12.81,12.81,0,0,0,.52,2s3.82,10.36,10.45,11.84a14.31,14.31,0,0,0,17.09-10.86l.22-1c0-.53.07-1.26.09-2h0l13.16,0a9.43,9.43,0,0,0,9.47-9.42v-.73h-.13a9.3,9.3,0,0,0,.14-1.43Zm-63.33,10.41a2.17,2.17,0,0,1,2.16-2.15h1a2.17,2.17,0,0,0,2.16-2.15l.07-32.61a2.17,2.17,0,0,1,2.16-2.16h4.43a2.17,2.17,0,0,1,2.16,2.16v6.25a2.16,2.16,0,0,0,2.16,2.16h1a2.17,2.17,0,0,0,2.16-2.16v-6a2.2,2.2,0,0,1,2.16-2.18l9.77-.1A2.13,2.13,0,0,1,375.1,367v6.15a2.17,2.17,0,0,0,2.16,2.16h1.1a2.17,2.17,0,0,0,2.16-2.16v-6.23a2.17,2.17,0,0,1,2.16-2.16H387A2.17,2.17,0,0,1,389.2,367l-.08,32.61a2.17,2.17,0,0,0,2.16,2.17h1a2.17,2.17,0,0,1,2.16,2.17l0,16.78a2.17,2.17,0,0,1-2.16,2.16h-11a2.76,2.76,0,0,1-2.59-2.11l-1.29-6.32a2.73,2.73,0,0,0-2.59-2.09l-13.49.15a2.82,2.82,0,0,0-2.6,2.14l-1.32,6.32a2.71,2.71,0,0,1-2.6,2.07l-11-.23a2.22,2.22,0,0,1-2.15-2.21Z"/><rect x="355.51" y="379.79" width="25.15" height="5.33" rx="2.67" ry="2.67"/><path d="M271.11,585.54c-7.44,0-12.06-4.48-12.06-11.09v-5.58a8.09,8.09,0,0,1,4.34-7.58c-2.62-1.17-4.27-4-4.27-7.58v-5c0-6.62,4.55-11.09,12-11.09s12.06,4.48,12.06,11.09v5c0,3.58-1.65,6.41-4.27,7.58a8.15,8.15,0,0,1,4.41,7.58v5.58C283.31,581.06,278.62,585.54,271.11,585.54ZM275.52,549a4.38,4.38,0,0,0-8.75,0v6.06a4.39,4.39,0,0,0,8.75,0Zm.07,18.67c0-2.14-1.52-4.07-4.48-4.07a4,4,0,0,0-4.34,4.07v6.41a4.12,4.12,0,0,0,4.34,4.34,4.2,4.2,0,0,0,4.48-4.34Z"/><path d="M304.05,585.54c-7.44,0-12.2-4.82-12.2-11.92v-24c0-7.17,4.75-11.92,12.2-11.92s12.27,4.75,12.27,11.92v24C316.32,580.72,311.57,585.54,304.05,585.54Zm4.41-36.59c0-2.21-1.65-4-4.41-4a4,4,0,0,0-4.34,4v25.22a4,4,0,0,0,4.34,4c2.76,0,4.41-1.79,4.41-4Z"/><path d="M327,584.51V542.26c2.62,0,3.58-1.72,3.58-3.65h4.34v45.89Z"/><path d="M359.88,584.51V538.61h8.54v38.31h12.82v7.58Z"/><path d="M405.28,584.51l-1.52-9h-8.13l-1.65,9h-8l9.23-45.89h9.58L414,584.51ZM399.91,551l-3.1,17.71h5.86Z"/><path d="M435.12,584.51H420.65V538.61H435c6.27,0,10.13,3.38,10.13,9.72v5c0,3.93-1.52,6.89-5.44,7.72,4.13,1.1,5.65,3.93,5.65,7.79v6C445.32,581.2,441.39,584.51,435.12,584.51Zm1.79-35.56c0-2.07-.9-3.31-3-3.31h-4.62v12.61h4.27c2.21,0,3.38-1.17,3.38-3.58Zm.14,19.23c0-2.41-1.17-3.65-3.38-3.65h-4.41v13h4.82c2.14,0,3-1.17,3-3.31Z"/><path d="M465.45,585.54c-7.86,0-12.75-4.69-12.75-11.85v-3.17h7.86v2.69c0,3.38,1.58,5.24,4.69,5.24s4.55-1.79,4.55-4.62c0-3.65-2.34-6.13-6.89-9.51s-9.78-7.92-9.78-14.33c0-6.62,4.27-12.33,12.54-12.33,7.24,0,12.06,5,12.06,11.78v3h-7.79v-2.76c0-2.83-1.45-4.89-4.34-4.89a3.87,3.87,0,0,0-4.13,4.13c0,3.86,2.27,5.86,7.37,9.58,5.44,4.07,9.3,8.2,9.3,14.4C478.12,580.23,473,585.54,465.45,585.54Z"/><path d="M396.12,510.63a7,7,0,0,1-1.77-13.77c45.27-11.86,76.9-53.15,76.9-100.42A103.6,103.6,0,0,0,406,300.16c-1.62-.64-9.65-4.5-9.65-9.33V209a6.78,6.78,0,0,1,6.76-7.3,11.63,11.63,0,0,0-.39-23.26H332.57a11.63,11.63,0,0,0-.39,23.26,6.78,6.78,0,0,1,6.76,7.3v81.83c0,4.67-8,8.69-9.66,9.33a103.34,103.34,0,0,0-50.55,149.15A107.76,107.76,0,0,0,317,486.84c13.82,8,21.51,9.16,21.83,9.21,5.83.82,10.14-.29,13.55-3.51,10.31-9.74,10.5-35.75,8.84-55.87-.11-1.31-.19-2.31-.22-2.92a7,7,0,0,1,14-.66c0,.51.1,1.34.19,2.43a189.12,189.12,0,0,1,.44,30.83c-1.39,16.91-6,29.15-13.62,36.37-6.47,6.11-15.15,8.6-25.11,7.2-2.48-.35-11.74-2.17-26.9-11a121.81,121.81,0,0,1-43.26-42.42,117.34,117.34,0,0,1,58.21-169.7V214.56a25.64,25.64,0,0,1,7.63-50.12h70.15a25.64,25.64,0,0,1,7.63,50.12v72.27a117.59,117.59,0,0,1,74.89,109.6c0,53.63-35.92,100.5-87.35,114A7,7,0,0,1,396.12,510.63Z"/></svg>
